<svg xmlns="http://www.w3.org/2000/svg" width="773" height="350" fill="none"><g clip-path="url(#a)"><rect width="773" height="350" fill="#F3F5FA" rx="32"/><path stroke="url(#b)" stroke-width="40" d="M-29.031 70.323C-16.223 117.841-5.37 206.916 92.795 259.728c98.163 52.813 190.979 19.553 253.904-31.848 62.925-51.402 60.407-140.343 183.372-161.685 98.372-17.073 208.058 23.602 275.787 98.123" opacity=".6"/><g filter="url(#c)"><g clip-path="url(#d)"><rect width="390" height="730" x="192" y="-413" fill="#FEFEFE" rx="20"/><path fill="#F3F5FA" d="M212 23c0-6.627 5.373-12 12-12h326c6.627 0 12 5.373 12 12v49c0 6.627-5.373 12-12 12H212V23z"/><path fill="#0C0B0E" d="M232.272 44.512v-3.6h1.152c.576-.704 1.003-1.648 1.28-2.832.277-1.195.416-2.677.416-4.448V30.72h7.696v10.192h1.648v3.6h-1.184V42h-9.824v2.512h-1.184zm2.512-3.6h6.704v-9.104h-5.136v1.92c0 1.717-.128 3.157-.384 4.32-.256 1.152-.651 2.107-1.184 2.864zm14.684 1.232c-.768 0-1.44-.165-2.016-.496a3.434 3.434 0 0 1-1.312-1.44c-.309-.63-.464-1.37-.464-2.224 0-.864.155-1.605.464-2.224a3.33 3.33 0 0 1 1.312-1.424c.576-.341 1.248-.512 2.016-.512.779 0 1.451.17 2.016.512a3.3 3.3 0 0 1 1.328 1.424c.32.619.48 1.36.48 2.224 0 .853-.16 1.595-.48 2.224a3.4 3.4 0 0 1-1.328 1.44c-.565.33-1.237.496-2.016.496zm0-1.056c.768 0 1.376-.261 1.824-.784.448-.533.672-1.307.672-2.32 0-1.024-.229-1.797-.688-2.32-.448-.533-1.051-.8-1.808-.8-.757 0-1.36.267-1.808.8-.448.523-.672 1.296-.672 2.32 0 1.013.224 1.787.672 2.32.448.523 1.051.784 1.808.784zm9.345 1.056c-1.173 0-2.107-.379-2.8-1.136-.693-.757-1.04-1.861-1.04-3.312v-1.408c0-1.483.304-2.683.912-3.6.608-.917 1.568-1.536 2.88-1.856l2.928-.736.4 1.056-3.248.8c-.597.15-1.088.41-1.472.784-.384.363-.677.8-.88 1.312a4.435 4.435 0 0 0-.288 1.6v.64h-.192c.128-.48.336-.89.624-1.232a2.78 2.78 0 0 1 1.056-.8 3.393 3.393 0 0 1 1.408-.288c.693 0 1.301.165 1.824.496.523.32.928.784 1.216 1.392.299.597.448 1.317.448 2.16 0 .843-.155 1.573-.464 2.192a3.434 3.434 0 0 1-1.312 1.44c-.565.33-1.232.496-2 .496zm-.032-1.04c.779 0 1.392-.256 1.84-.768.448-.523.672-1.285.672-2.288 0-.992-.229-1.744-.688-2.256-.448-.523-1.056-.784-1.824-.784s-1.381.256-1.84.768c-.448.512-.672 1.237-.672 2.176 0 1.045.224 1.835.672 2.368.448.523 1.061.784 1.84.784zm6.001 4.352v-9.632a8.86 8.86 0 0 0-.048-.912 27.53 27.53 0 0 0-.08-.944h1.248l.176 1.904h-.192c.17-.63.517-1.125 1.04-1.488.522-.373 1.146-.56 1.872-.56.725 0 1.349.165 1.872.496.533.33.949.805 1.248 1.424.298.619.448 1.365.448 2.24 0 .864-.15 1.605-.448 2.224-.288.619-.699 1.099-1.232 1.44-.534.33-1.163.496-1.888.496-.715 0-1.334-.181-1.856-.544a2.568 2.568 0 0 1-1.04-1.488h.176v5.344h-1.296zm3.76-4.368c.768 0 1.376-.261 1.824-.784.458-.533.688-1.307.688-2.32 0-1.024-.23-1.797-.688-2.32-.448-.533-1.056-.8-1.824-.8-.758 0-1.366.267-1.824.8-.448.523-.672 1.296-.672 2.32 0 1.013.224 1.787.672 2.32.458.523 1.066.784 1.824.784zm5.941.912v-8.032h1.296v2.88h2.416c1.035 0 1.813.224 2.336.672.533.437.8 1.061.8 1.872 0 .544-.123 1.013-.368 1.408-.235.384-.587.683-1.056.896-.459.203-1.029.304-1.712.304h-3.712zm1.296-.928h2.304c.651 0 1.147-.133 1.488-.4.341-.277.512-.699.512-1.264 0-.565-.171-.976-.512-1.232-.331-.267-.827-.4-1.488-.4h-2.304v3.296zm6.768.928v-8.032h1.28V42h-1.28zm3.842 0v-8.032h1.184V40.8h-.432l5.12-6.832h1.088V42h-1.168v-6.848h.432L287.493 42h-1.104zm3.472-8.784c-.437 0-.842-.075-1.216-.224a2.679 2.679 0 0 1-.976-.672 3.015 3.015 0 0 1-.624-1.136l.768-.288c.192.512.454.89.784 1.136.342.245.768.368 1.28.368s.934-.112 1.264-.336c.331-.224.619-.608.864-1.152l.736.272c-.277.725-.666 1.248-1.168 1.568-.49.31-1.061.464-1.712.464zm9.368 10.864v-3.104h.848c.384-.544.661-1.195.832-1.952.171-.757.256-1.653.256-2.688v-2.368h5.648v7.008h1.264v3.104h-1.12V42h-6.624v2.08h-1.104zm2.096-3.088h4.256v-6.016h-3.28v1.568c0 .843-.085 1.659-.256 2.448-.16.779-.4 1.445-.72 2zm12.118 1.152c-1.258 0-2.25-.363-2.976-1.088-.725-.736-1.088-1.755-1.088-3.056 0-.843.16-1.573.48-2.192.32-.63.768-1.115 1.344-1.456.576-.352 1.238-.528 1.984-.528.736 0 1.355.155 1.856.464.502.31.886.752 1.152 1.328.267.565.4 1.237.4 2.016v.48h-6.224v-.816h5.376l-.272.208c0-.853-.192-1.52-.576-2-.384-.48-.954-.72-1.712-.72-.8 0-1.424.283-1.872.848-.448.555-.672 1.307-.672 2.256v.144c0 1.003.246 1.765.736 2.288.502.512 1.2.768 2.096.768.48 0 .928-.07 1.344-.208a3.77 3.77 0 0 0 1.216-.72l.448.912c-.352.341-.8.608-1.344.8a5.23 5.23 0 0 1-1.696.272zm5.228-.144v-8.032h1.296v3.36h4.416v-3.36h1.296V42h-1.296v-3.632h-4.416V42h-1.296zm9.562 0v-8.032h1.296v2.88h2.416c1.035 0 1.813.224 2.336.672.533.437.8 1.061.8 1.872 0 .544-.123 1.013-.368 1.408-.235.384-.587.683-1.056.896-.459.203-1.029.304-1.712.304h-3.712zm1.296-.928h2.304c.651 0 1.147-.133 1.488-.4.341-.277.512-.699.512-1.264 0-.565-.171-.976-.512-1.232-.331-.267-.827-.4-1.488-.4h-2.304v3.296zm7.885 2.752-.608-.464c.288-.299.475-.581.56-.848.096-.256.144-.517.144-.784l.288.272h-1.056v-1.632h1.632v1.152c0 .427-.069.827-.208 1.2-.138.384-.389.752-.752 1.104zM344.827 42v-8.032h1.296v3.36h4.416v-3.36h1.296V42h-1.296v-3.632h-4.416V42h-1.296zm12.682.144c-.714 0-1.338-.165-1.872-.496-.533-.341-.949-.821-1.248-1.44-.288-.619-.432-1.36-.432-2.224 0-.875.144-1.621.432-2.24.299-.619.715-1.093 1.248-1.424.534-.33 1.158-.496 1.872-.496.726 0 1.35.187 1.872.56.534.363.886.859 1.056 1.488h-.192l.176-1.904h1.248l-.096.944c-.021.31-.032.613-.032.912V42h-1.296v-1.888h.176a2.544 2.544 0 0 1-1.056 1.488c-.533.363-1.152.544-1.856.544zm.256-1.056c.768 0 1.376-.261 1.824-.784.448-.533.672-1.307.672-2.32 0-1.024-.224-1.797-.672-2.32-.448-.533-1.056-.8-1.824-.8-.757 0-1.365.267-1.824.8-.448.523-.672 1.296-.672 2.32 0 1.013.224 1.787.672 2.32.459.523 1.067.784 1.824.784zm14.002 1.056c-.789 0-1.477-.17-2.064-.512a3.484 3.484 0 0 1-1.344-1.456c-.309-.63-.464-1.376-.464-2.24 0-.875.16-1.616.48-2.224a3.3 3.3 0 0 1 1.344-1.408c.587-.32 1.269-.48 2.048-.48.512 0 1.008.09 1.488.272.491.181.896.437 1.216.768l-.464.928a3.164 3.164 0 0 0-1.056-.688 2.956 2.956 0 0 0-1.104-.224c-.832 0-1.477.261-1.936.784-.459.523-.688 1.285-.688 2.288 0 .992.229 1.76.688 2.304.459.544 1.104.816 1.936.816.352 0 .715-.07 1.088-.208a3.016 3.016 0 0 0 1.072-.688l.464.912a3.257 3.257 0 0 1-1.232.784 4.222 4.222 0 0 1-1.472.272zm4.638-.144v-8.032h3.872c.928 0 1.621.181 2.08.544.469.352.704.875.704 1.568 0 .512-.181.944-.544 1.296-.352.341-.811.544-1.376.608v-.192c.661.021 1.189.213 1.584.576s.592.832.592 1.408c0 .693-.256 1.237-.768 1.632-.501.395-1.216.592-2.144.592h-4zm1.232-.88h2.704c.565 0 .997-.117 1.296-.352.309-.245.464-.592.464-1.04 0-.448-.155-.79-.464-1.024-.299-.235-.731-.352-1.296-.352h-2.704v2.768zm0-3.648h2.56c.523 0 .928-.117 1.216-.352.288-.235.432-.56.432-.976 0-.416-.144-.736-.432-.96-.288-.235-.693-.352-1.216-.352h-2.56v2.64zm7.05 4.528 1.28-2.208a2.57 2.57 0 0 1 .768-.848c.309-.224.635-.336.976-.336h.224l-.016.144c-.907 0-1.611-.203-2.112-.608-.501-.416-.752-1.013-.752-1.792 0-.747.245-1.328.736-1.744.491-.427 1.221-.64 2.192-.64h3.568V42h-1.216v-3.104h-1.2c-.448 0-.827.112-1.136.336a2.99 2.99 0 0 0-.784.848L386.127 42h-1.44zm3.52-4.016h2.128v-3.12h-2.128c-.651 0-1.136.139-1.456.416-.309.277-.464.656-.464 1.136 0 .501.155.89.464 1.168.32.267.805.4 1.456.4zm8.557 4.16a6.74 6.74 0 0 1-1.936-.272c-.597-.192-1.088-.453-1.472-.784l.448-.912c.395.32.837.565 1.328.736.501.16 1.045.24 1.632.24.789 0 1.36-.123 1.712-.368.352-.245.528-.592.528-1.04 0-.437-.149-.768-.448-.992-.299-.235-.736-.352-1.312-.352h-1.888v-.96h1.728c.512 0 .912-.112 1.2-.336.299-.235.448-.555.448-.96 0-.416-.16-.741-.48-.976-.32-.245-.821-.368-1.504-.368-.544 0-1.051.075-1.52.224a4.255 4.255 0 0 0-1.312.672l-.432-.88a4.317 4.317 0 0 1 1.52-.752c.576-.16 1.2-.24 1.872-.24 1.003 0 1.765.197 2.288.592.523.384.784.933.784 1.648 0 .501-.171.933-.512 1.296-.341.352-.795.56-1.36.624v-.192c.64.021 1.157.213 1.552.576s.592.837.592 1.424c0 .715-.293 1.285-.88 1.712-.576.427-1.435.64-2.576.64zm5.469-.144v-8.032h1.184V40.8h-.432l5.12-6.832h1.088V42h-1.168v-6.848h.432L403.337 42h-1.104zm18.296 3.456v-5.248h.16c-.171.619-.454 1.099-.848 1.44-.384.33-.875.496-1.472.496a2.4 2.4 0 0 1-1.52-.512c-.427-.341-.763-.821-1.008-1.44-.246-.63-.368-1.365-.368-2.208 0-.853.117-1.59.352-2.208.245-.63.581-1.11 1.008-1.44a2.423 2.423 0 0 1 1.536-.512c.597 0 1.088.17 1.472.512.394.33.677.8.848 1.408h-.16v-5.52h1.296v5.52h-.176c.17-.608.453-1.077.848-1.408.405-.341.896-.512 1.472-.512.586 0 1.093.17 1.52.512.437.33.773.81 1.008 1.44.245.619.368 1.355.368 2.208 0 .843-.123 1.579-.368 2.208-.235.619-.571 1.099-1.008 1.44-.427.341-.934.512-1.52.512-.576 0-1.062-.165-1.456-.496-.395-.341-.683-.821-.864-1.44h.176v5.248h-1.296zm-1.872-4.336c.586 0 1.045-.267 1.376-.8.341-.533.512-1.312.512-2.336 0-1.013-.171-1.787-.512-2.32-.331-.544-.79-.816-1.376-.816-.587 0-1.051.272-1.392.816-.331.533-.496 1.307-.496 2.32 0 1.024.165 1.803.496 2.336.341.533.805.8 1.392.8zm5.024 0c.586 0 1.05-.267 1.392-.8.341-.533.512-1.312.512-2.336 0-1.013-.176-1.787-.528-2.32-.342-.544-.8-.816-1.376-.816-.587 0-1.051.272-1.392.816-.331.533-.496 1.307-.496 2.32 0 1.024.165 1.803.496 2.336.341.533.805.8 1.392.8zm5.318.88v-8.032h1.184V40.8h-.432l5.12-6.832h1.088V42h-1.168v-6.848h.432L430.103 42h-1.104zm11.227 0v-6.992h-2.912v-1.04h7.136v1.04h-2.928V42h-1.296zm5.57 0v-8.032h1.296v3.36h4.416v-3.36h1.296V42h-1.296v-3.632h-4.416V42h-1.296zm13.194.144c-1.259 0-2.251-.363-2.976-1.088-.725-.736-1.088-1.755-1.088-3.056 0-.843.16-1.573.48-2.192.32-.63.768-1.115 1.344-1.456.576-.352 1.237-.528 1.984-.528.736 0 1.355.155 1.856.464a3 3 0 0 1 1.152 1.328c.267.565.4 1.237.4 2.016v.48h-6.224v-.816h5.376l-.272.208c0-.853-.192-1.52-.576-2-.384-.48-.955-.72-1.712-.72-.8 0-1.424.283-1.872.848-.448.555-.672 1.307-.672 2.256v.144c0 1.003.245 1.765.736 2.288.501.512 1.2.768 2.096.768.48 0 .928-.07 1.344-.208a3.77 3.77 0 0 0 1.216-.72l.448.912c-.352.341-.8.608-1.344.8a5.234 5.234 0 0 1-1.696.272zm8.668 0c-.79 0-1.478-.17-2.064-.512a3.484 3.484 0 0 1-1.344-1.456c-.31-.63-.464-1.376-.464-2.24 0-.875.16-1.616.48-2.224a3.3 3.3 0 0 1 1.344-1.408c.586-.32 1.269-.48 2.048-.48.512 0 1.008.09 1.488.272.49.181.896.437 1.216.768l-.464.928a3.164 3.164 0 0 0-1.056-.688 2.964 2.964 0 0 0-1.104-.224c-.832 0-1.478.261-1.936.784-.459.523-.688 1.285-.688 2.288 0 .992.229 1.76.688 2.304.458.544 1.104.816 1.936.816.352 0 .714-.07 1.088-.208a3.016 3.016 0 0 0 1.072-.688l.464.912a3.265 3.265 0 0 1-1.232.784 4.226 4.226 0 0 1-1.472.272zm4.51-4v-1.072h4.56v1.072h-4.56zm13.915 5.936V42h-6.944v-8.032h1.296v7.008h4.208v-7.008h1.264v7.008h1.28v3.104h-1.104zm6.47-1.936c-1.259 0-2.251-.363-2.976-1.088-.726-.736-1.088-1.755-1.088-3.056 0-.843.16-1.573.48-2.192.32-.63.768-1.115 1.344-1.456.576-.352 1.237-.528 1.984-.528.736 0 1.354.155 1.856.464a3 3 0 0 1 1.152 1.328c.266.565.4 1.237.4 2.016v.48h-6.224v-.816h5.376l-.272.208c0-.853-.192-1.52-.576-2-.384-.48-.955-.72-1.712-.72-.8 0-1.424.283-1.872.848-.448.555-.672 1.307-.672 2.256v.144c0 1.003.245 1.765.736 2.288.501.512 1.2.768 2.096.768.48 0 .928-.07 1.344-.208a3.78 3.78 0 0 0 1.216-.72l.448.912c-.352.341-.8.608-1.344.8a5.238 5.238 0 0 1-1.696.272zM497.78 42v-8.032h1.296v3.36h4.416v-3.36h1.296V42h-1.296v-3.632h-4.416V42h-1.296zm11.275 0v-6.992h-2.912v-1.04h7.136v1.04h-2.928V42h-1.296zm5.633 3.456v-9.632a8.86 8.86 0 0 0-.048-.912 27.53 27.53 0 0 0-.08-.944h1.248l.176 1.904h-.192c.17-.63.517-1.125 1.04-1.488.522-.373 1.146-.56 1.872-.56.725 0 1.349.165 1.872.496.533.33.949.805 1.248 1.424.298.619.448 1.365.448 2.24 0 .864-.15 1.605-.448 2.224-.288.619-.699 1.099-1.232 1.44-.534.33-1.163.496-1.888.496-.715 0-1.334-.181-1.856-.544a2.568 2.568 0 0 1-1.04-1.488h.176v5.344h-1.296zm3.76-4.368c.768 0 1.376-.261 1.824-.784.458-.533.688-1.307.688-2.32 0-1.024-.23-1.797-.688-2.32-.448-.533-1.056-.8-1.824-.8-.758 0-1.366.267-1.824.8-.448.523-.672 1.296-.672 2.32 0 1.013.224 1.787.672 2.32.458.523 1.066.784 1.824.784zM233.008 54.08v-1.136c0-.437.069-.843.208-1.216.149-.373.4-.741.752-1.104l.624.464c-.277.31-.469.592-.576.848a2.132 2.132 0 0 0-.144.784l-.384-.272h1.152v1.632h-1.632zm2.688 0v-1.136c0-.437.069-.843.208-1.216.149-.373.4-.741.752-1.104l.624.464c-.277.31-.469.592-.576.848a2.132 2.132 0 0 0-.144.784l-.384-.272h1.152v1.632h-1.632zm7.768 8.064c-.982 0-1.856-.128-2.624-.384-.758-.267-1.376-.624-1.856-1.072l.48-1.024a5.427 5.427 0 0 0 1.728 1.008c.629.213 1.365.32 2.208.32 1.088 0 1.882-.181 2.384-.544.501-.363.752-.896.752-1.6 0-.693-.224-1.2-.672-1.52-.438-.33-1.104-.496-2-.496h-2.848v-1.088h2.624c.853 0 1.504-.165 1.952-.496.448-.341.672-.832.672-1.472s-.24-1.141-.72-1.504c-.47-.363-1.179-.544-2.128-.544a6.05 6.05 0 0 0-1.984.32 4.976 4.976 0 0 0-1.696.96l-.496-1.024c.501-.459 1.125-.805 1.872-1.04a7.687 7.687 0 0 1 2.384-.368c1.344 0 2.357.277 3.04.832.693.555 1.04 1.301 1.04 2.24 0 .693-.214 1.28-.64 1.76-.416.47-.987.784-1.712.944v-.224c.81.096 1.45.39 1.92.88.469.48.704 1.115.704 1.904 0 .661-.16 1.237-.48 1.728-.32.48-.806.853-1.456 1.12-.651.256-1.467.384-2.448.384zm5.765 1.936v-3.104h.848c.384-.544.661-1.195.832-1.952.171-.757.256-1.653.256-2.688v-2.368h5.648v7.008h1.264v3.104h-1.12V62h-6.624v2.08h-1.104zm2.096-3.088h4.256v-6.016h-3.28v1.568c0 .843-.085 1.659-.256 2.448-.16.779-.4 1.445-.72 2zm11.846 1.152c-.768 0-1.44-.165-2.016-.496a3.44 3.44 0 0 1-1.312-1.44c-.309-.63-.464-1.37-.464-2.224 0-.864.155-1.605.464-2.224a3.337 3.337 0 0 1 1.312-1.424c.576-.341 1.248-.512 2.016-.512.779 0 1.451.17 2.016.512a3.3 3.3 0 0 1 1.328 1.424c.32.619.48 1.36.48 2.224 0 .853-.16 1.595-.48 2.224a3.4 3.4 0 0 1-1.328 1.44c-.565.33-1.237.496-2.016.496zm0-1.056c.768 0 1.376-.261 1.824-.784.448-.533.672-1.307.672-2.32 0-1.024-.229-1.797-.688-2.32-.448-.533-1.05-.8-1.808-.8-.757 0-1.36.267-1.808.8-.448.523-.672 1.296-.672 2.32 0 1.013.224 1.787.672 2.32.448.523 1.051.784 1.808.784zm6.001 4.368v-9.632a8.86 8.86 0 0 0-.048-.912c-.021-.32-.048-.635-.08-.944h1.248l.176 1.904h-.192a2.572 2.572 0 0 1 1.04-1.488c.523-.373 1.147-.56 1.872-.56.725 0 1.349.165 1.872.496.533.33.949.805 1.248 1.424.299.619.448 1.365.448 2.24 0 .864-.149 1.605-.448 2.224-.288.619-.699 1.099-1.232 1.44-.533.33-1.163.496-1.888.496-.715 0-1.333-.181-1.856-.544a2.572 2.572 0 0 1-1.04-1.488h.176v5.344h-1.296zm3.76-4.368c.768 0 1.376-.261 1.824-.784.459-.533.688-1.307.688-2.32 0-1.024-.229-1.797-.688-2.32-.448-.533-1.056-.8-1.824-.8-.757 0-1.365.267-1.824.8-.448.523-.672 1.296-.672 2.32 0 1.013.224 1.787.672 2.32.459.523 1.067.784 1.824.784zm9.302 1.056c-.768 0-1.44-.165-2.016-.496a3.427 3.427 0 0 1-1.312-1.44c-.31-.63-.464-1.37-.464-2.224 0-.864.154-1.605.464-2.224a3.325 3.325 0 0 1 1.312-1.424c.576-.341 1.248-.512 2.016-.512.778 0 1.45.17 2.016.512a3.3 3.3 0 0 1 1.328 1.424c.32.619.48 1.36.48 2.224 0 .853-.16 1.595-.48 2.224a3.406 3.406 0 0 1-1.328 1.44c-.566.33-1.238.496-2.016.496zm0-1.056c.768 0 1.376-.261 1.824-.784.448-.533.672-1.307.672-2.32 0-1.024-.23-1.797-.688-2.32-.448-.533-1.051-.8-1.808-.8-.758 0-1.36.267-1.808.8-.448.523-.672 1.296-.672 2.32 0 1.013.224 1.787.672 2.32.448.523 1.05.784 1.808.784zm5.937.912v-8.032h3.872c.928 0 1.621.181 2.08.544.469.352.704.875.704 1.568 0 .512-.182.944-.544 1.296-.352.341-.811.544-1.376.608v-.192c.661.021 1.189.213 1.584.576.394.363.592.832.592 1.408 0 .693-.256 1.237-.768 1.632-.502.395-1.216.592-2.144.592h-4zm1.232-.88h2.704c.565 0 .997-.117 1.296-.352.309-.245.464-.592.464-1.04 0-.448-.155-.79-.464-1.024-.299-.235-.731-.352-1.296-.352h-2.704v2.768zm0-3.648h2.56c.522 0 .928-.117 1.216-.352.288-.235.432-.56.432-.976 0-.416-.144-.736-.432-.96-.288-.235-.694-.352-1.216-.352h-2.56v2.64zm7.69 4.528v-8.032h1.296v2.88h2.416c1.034 0 1.813.224 2.336.672.533.437.8 1.061.8 1.872 0 .544-.123 1.013-.368 1.408-.235.384-.587.683-1.056.896-.459.203-1.03.304-1.712.304h-3.712zm1.296-.928h2.304c.65 0 1.146-.133 1.488-.4.341-.277.512-.699.512-1.264 0-.565-.171-.976-.512-1.232-.331-.267-.827-.4-1.488-.4h-2.304v3.296zm11.117 1.072c-1.259 0-2.251-.363-2.976-1.088-.726-.736-1.088-1.755-1.088-3.056 0-.843.16-1.573.48-2.192.32-.63.768-1.115 1.344-1.456.576-.352 1.237-.528 1.984-.528.736 0 1.354.155 1.856.464a3 3 0 0 1 1.152 1.328c.266.565.4 1.237.4 2.016v.48h-6.224v-.816h5.376l-.272.208c0-.853-.192-1.52-.576-2-.384-.48-.955-.72-1.712-.72-.8 0-1.424.283-1.872.848-.448.555-.672 1.307-.672 2.256v.144c0 1.003.245 1.765.736 2.288.501.512 1.2.768 2.096.768.48 0 .928-.07 1.344-.208a3.78 3.78 0 0 0 1.216-.72l.448.912c-.352.341-.8.608-1.344.8a5.238 5.238 0 0 1-1.696.272zm8.235-.752v-3.488h-3.44v-.992h3.44v-3.408h1.024v3.408h3.44v.992h-3.44v3.488h-1.024zm7.002-7.216-.608-.464c.288-.299.475-.576.56-.832.096-.267.144-.528.144-.784l.4.256h-1.168V50.72h1.632v1.152c0 .427-.069.827-.208 1.2-.139.373-.389.741-.752 1.104zm2.688 0-.608-.464c.288-.299.475-.576.56-.832.096-.267.144-.528.144-.784l.4.256h-1.168V50.72h1.632v1.152c0 .427-.069.827-.208 1.2-.139.373-.389.741-.752 1.104zM340.027 62v-3.264c-.31.181-.646.32-1.008.416a4.553 4.553 0 0 1-1.168.144c-1.131 0-1.974-.261-2.528-.784-.544-.533-.816-1.339-.816-2.416v-2.128h1.296V56c0 .779.176 1.344.528 1.696.362.341.928.512 1.696.512.394 0 .746-.043 1.056-.128.309-.085.613-.23.912-.432v-3.68h1.296V62h-1.264zm7.463.144c-1.259 0-2.251-.363-2.976-1.088-.725-.736-1.088-1.755-1.088-3.056 0-.843.16-1.573.48-2.192.32-.63.768-1.115 1.344-1.456.576-.352 1.237-.528 1.984-.528.736 0 1.355.155 1.856.464a3 3 0 0 1 1.152 1.328c.267.565.4 1.237.4 2.016v.48h-6.224v-.816h5.376l-.272.208c0-.853-.192-1.52-.576-2-.384-.48-.955-.72-1.712-.72-.8 0-1.424.283-1.872.848-.448.555-.672 1.307-.672 2.256v.144c0 1.003.245 1.765.736 2.288.501.512 1.2.768 2.096.768.48 0 .928-.07 1.344-.208a3.77 3.77 0 0 0 1.216-.72l.448.912c-.352.341-.8.608-1.344.8a5.234 5.234 0 0 1-1.696.272zm5.228-.144v-8.032h1.088l3.008 5.392 3.024-5.392h1.088V62h-1.152v-6.592h.336l-2.96 5.296h-.656l-2.976-5.312h.352V62h-1.152zm14.937 0v-8.032h1.088l3.008 5.392 3.024-5.392h1.088V62h-1.152v-6.592h.336l-2.96 5.296h-.656l-2.976-5.312h.352V62h-1.152zm14.126.144c-.768 0-1.44-.165-2.016-.496a3.427 3.427 0 0 1-1.312-1.44c-.31-.63-.464-1.37-.464-2.224 0-.864.154-1.605.464-2.224a3.325 3.325 0 0 1 1.312-1.424c.576-.341 1.248-.512 2.016-.512.778 0 1.45.17 2.016.512a3.3 3.3 0 0 1 1.328 1.424c.32.619.48 1.36.48 2.224 0 .853-.16 1.595-.48 2.224a3.406 3.406 0 0 1-1.328 1.44c-.566.33-1.238.496-2.016.496zm0-1.056c.768 0 1.376-.261 1.824-.784.448-.533.672-1.307.672-2.32 0-1.024-.23-1.797-.688-2.32-.448-.533-1.051-.8-1.808-.8-.758 0-1.36.267-1.808.8-.448.523-.672 1.296-.672 2.32 0 1.013.224 1.787.672 2.32.448.523 1.05.784 1.808.784zm5.937.912v-8.032h5.6v1.04h-4.304V62h-1.296zm6.869 3.632-.304-1.072a6.094 6.094 0 0 0 1.248-.416 2.37 2.37 0 0 0 .848-.608c.224-.256.416-.576.576-.96l.416-.944-.032.544-3.504-8.208h1.408l2.896 7.056h-.416l2.864-7.056h1.36l-3.712 8.704a5.97 5.97 0 0 1-.704 1.28 3.718 3.718 0 0 1-.832.848c-.288.224-.608.4-.96.528s-.736.23-1.152.304zM407.671 62v-8.032h3.872c.928 0 1.621.181 2.08.544.469.352.704.875.704 1.568 0 .512-.182.944-.544 1.296-.352.341-.811.544-1.376.608v-.192c.661.021 1.189.213 1.584.576.394.363.592.832.592 1.408 0 .693-.256 1.237-.768 1.632-.502.395-1.216.592-2.144.592h-4zm1.232-.88h2.704c.565 0 .997-.117 1.296-.352.309-.245.464-.592.464-1.04 0-.448-.155-.79-.464-1.024-.299-.235-.731-.352-1.296-.352h-2.704v2.768zm0-3.648h2.56c.522 0 .928-.117 1.216-.352.288-.235.432-.56.432-.976 0-.416-.144-.736-.432-.96-.288-.235-.694-.352-1.216-.352h-2.56v2.64zm10.81 4.672c-.715 0-1.339-.165-1.872-.496-.534-.341-.95-.821-1.248-1.44-.288-.619-.432-1.36-.432-2.224 0-.875.144-1.621.432-2.24.298-.619.714-1.093 1.248-1.424.533-.33 1.157-.496 1.872-.496.725 0 1.349.187 1.872.56.533.363.885.859 1.056 1.488h-.192l.176-1.904h1.248l-.096.944c-.022.31-.032.613-.032.912V62h-1.296v-1.888h.176a2.553 2.553 0 0 1-1.056 1.488c-.534.363-1.152.544-1.856.544zm.256-1.056c.768 0 1.376-.261 1.824-.784.448-.533.672-1.307.672-2.32 0-1.024-.224-1.797-.672-2.32-.448-.533-1.056-.8-1.824-.8-.758 0-1.366.267-1.824.8-.448.523-.672 1.296-.672 2.32 0 1.013.224 1.787.672 2.32.458.523 1.066.784 1.824.784zm6.389.912v-8.032h1.088l3.008 5.392 3.024-5.392h1.088V62h-1.152v-6.592h.336l-2.96 5.296h-.656l-2.976-5.312h.352V62h-1.152zm14.938 0v-8.032h6.96V62h-1.296v-7.008h-4.368V62h-1.296zm12.875.144c-.768 0-1.44-.165-2.016-.496a3.44 3.44 0 0 1-1.312-1.44c-.309-.63-.464-1.37-.464-2.224 0-.864.155-1.605.464-2.224a3.337 3.337 0 0 1 1.312-1.424c.576-.341 1.248-.512 2.016-.512.779 0 1.451.17 2.016.512a3.3 3.3 0 0 1 1.328 1.424c.32.619.48 1.36.48 2.224 0 .853-.16 1.595-.48 2.224a3.4 3.4 0 0 1-1.328 1.44c-.565.33-1.237.496-2.016.496zm0-1.056c.768 0 1.376-.261 1.824-.784.448-.533.672-1.307.672-2.32 0-1.024-.229-1.797-.688-2.32-.448-.533-1.05-.8-1.808-.8-.757 0-1.36.267-1.808.8-.448.523-.672 1.296-.672 2.32 0 1.013.224 1.787.672 2.32.448.523 1.051.784 1.808.784zm5.937.912v-8.032h1.088l3.008 5.392 3.024-5.392h1.088V62h-1.152v-6.592h.336l-2.96 5.296h-.656l-2.976-5.312h.352V62h-1.152zm14.126.144c-.768 0-1.44-.165-2.016-.496a3.427 3.427 0 0 1-1.312-1.44c-.31-.63-.464-1.37-.464-2.224 0-.864.154-1.605.464-2.224a3.325 3.325 0 0 1 1.312-1.424c.576-.341 1.248-.512 2.016-.512.778 0 1.45.17 2.016.512a3.3 3.3 0 0 1 1.328 1.424c.32.619.48 1.36.48 2.224 0 .853-.16 1.595-.48 2.224a3.406 3.406 0 0 1-1.328 1.44c-.566.33-1.238.496-2.016.496zm0-1.056c.768 0 1.376-.261 1.824-.784.448-.533.672-1.307.672-2.32 0-1.024-.23-1.797-.688-2.32-.448-.533-1.051-.8-1.808-.8-.758 0-1.36.267-1.808.8-.448.523-.672 1.296-.672 2.32 0 1.013.224 1.787.672 2.32.448.523 1.05.784 1.808.784zm11.121.912v-3.264c-.31.181-.646.32-1.008.416a4.553 4.553 0 0 1-1.168.144c-1.131 0-1.974-.261-2.528-.784-.544-.533-.816-1.339-.816-2.416v-2.128h1.296V56c0 .779.176 1.344.528 1.696.362.341.928.512 1.696.512.394 0 .746-.043 1.056-.128.309-.085.613-.23.912-.432v-3.68h1.296V62h-1.264zm3.831 0v-8.032h1.296v2.88h2.416c1.035 0 1.814.224 2.336.672.534.437.8 1.061.8 1.872 0 .544-.122 1.013-.368 1.408-.234.384-.586.683-1.056.896-.458.203-1.029.304-1.712.304h-3.712zm1.296-.928h2.304c.651 0 1.147-.133 1.488-.4.342-.277.512-.699.512-1.264 0-.565-.17-.976-.512-1.232-.33-.267-.826-.4-1.488-.4h-2.304v3.296zm8.958-2.016v-.464c0-.544.101-1.05.304-1.52.213-.48.586-1.019 1.12-1.616.416-.459.709-.859.88-1.2.17-.352.256-.71.256-1.072 0-.459-.166-.816-.496-1.072-.331-.267-.79-.4-1.376-.4-.416 0-.816.059-1.2.176a5.213 5.213 0 0 0-1.104.448v-1.2c.352-.181.736-.32 1.152-.416a5.808 5.808 0 0 1 1.28-.144c.608 0 1.141.101 1.6.304.458.192.816.475 1.072.848.266.363.4.81.4 1.344 0 .341-.054.672-.16.992-.107.31-.272.624-.496.944-.224.31-.512.65-.864 1.024-.523.533-.891 1.003-1.104 1.408-.214.395-.342.8-.384 1.216l-.048.4h-.832zM499.024 62v-1.632h1.648V62h-1.648z"/><path fill="#88878A" d="M528.61 76v-.71h1.66v-5.63h.44l-1.94 1.21v-.83l1.73-1.09h.6v6.34h1.56V76h-4.05zm5.686 0v-.62l2.5-2.61c.327-.34.57-.663.73-.97.167-.313.25-.637.25-.97 0-.407-.126-.713-.38-.92-.253-.213-.62-.32-1.1-.32-.373 0-.72.067-1.04.2a2.92 2.92 0 0 0-.91.61l-.3-.65a2.9 2.9 0 0 1 1.02-.64c.414-.167.85-.25 1.31-.25.714 0 1.264.167 1.65.5.387.327.58.793.58 1.4 0 .447-.11.873-.33 1.28-.213.4-.526.813-.94 1.24l-2.21 2.24v-.23h3.78V76h-4.61zm5.866-4v-1.02h1.02V72h-1.02zm0 4v-1.02h1.02V76h-1.02zm4.706.09a4.2 4.2 0 0 1-1.36-.22 2.963 2.963 0 0 1-1.09-.63l.31-.64a3.3 3.3 0 0 0 1.01.58c.346.12.72.18 1.12.18.526 0 .926-.11 1.2-.33.273-.227.41-.557.41-.99 0-.413-.14-.727-.42-.94-.28-.22-.69-.33-1.23-.33h-1.06v-.69h.99c.466 0 .836-.12 1.11-.36.273-.24.41-.567.41-.98 0-.373-.127-.657-.38-.85-.247-.2-.604-.3-1.07-.3-.76 0-1.417.27-1.97.81l-.31-.65c.273-.28.616-.497 1.03-.65.413-.16.846-.24 1.3-.24.693 0 1.236.16 1.63.48.393.32.59.763.59 1.33 0 .433-.124.807-.37 1.12-.247.307-.58.517-1 .63v-.11c.5.08.886.28 1.16.6.273.313.41.71.41 1.19 0 .613-.217 1.1-.65 1.46-.427.353-1.017.53-1.77.53zm6.136 0c-.8 0-1.413-.31-1.84-.93-.427-.62-.64-1.517-.64-2.69 0-1.18.213-2.077.64-2.69.427-.613 1.04-.92 1.84-.92.807 0 1.42.307 1.84.92.427.613.64 1.507.64 2.68 0 1.18-.213 2.08-.64 2.7-.427.62-1.04.93-1.84.93zm0-.72c.56 0 .977-.237 1.25-.71s.41-1.207.41-2.2c0-1-.137-1.73-.41-2.19-.273-.467-.69-.7-1.25-.7-.553 0-.97.233-1.25.7-.273.467-.41 1.197-.41 2.19 0 .993.137 1.727.41 2.2.28.473.697.71 1.25.71z"/><rect width="80" height="34" x="212.5" y="104.5" stroke="#494BD9" rx="9.5"/><path fill="#494BD9" d="M224.84 121.058c0-1.036.182-1.932.546-2.688.364-.756.887-1.339 1.568-1.75.691-.411 1.512-.616 2.464-.616.943 0 1.755.205 2.436.616a4.087 4.087 0 0 1 1.596 1.75c.373.756.56 1.647.56 2.674 0 1.036-.187 1.937-.56 2.702a4.176 4.176 0 0 1-1.596 1.764c-.681.411-1.493.616-2.436.616-.952 0-1.769-.205-2.45-.616a4.21 4.21 0 0 1-1.582-1.764c-.364-.765-.546-1.661-.546-2.688zm1.372 0c0 1.232.271 2.193.812 2.884.541.691 1.339 1.036 2.394 1.036 1.017 0 1.806-.341 2.366-1.022.569-.691.854-1.657.854-2.898s-.28-2.203-.84-2.884c-.56-.681-1.353-1.022-2.38-1.022-1.055 0-1.853.341-2.394 1.022-.541.681-.812 1.643-.812 2.884zM239.653 126v-7.042h1.26v2.912h1.274l2.268-2.912h1.386l-2.632 3.43-.336-.392c.27.028.504.098.7.21.196.103.382.257.56.462.186.205.387.481.602.826l1.456 2.506h-1.372l-1.274-2.17a2.662 2.662 0 0 0-.42-.588 1.164 1.164 0 0 0-.476-.294 2.074 2.074 0 0 0-.644-.084h-1.092V126h-1.26zm7.292.168-.448-.994c.327-.149.598-.327.812-.532.224-.215.397-.485.518-.812.131-.327.224-.733.28-1.218a15.71 15.71 0 0 0 .084-1.764v-1.89h5.194V126h-1.26v-6.048h-2.758v.924c0 1.083-.084 1.979-.252 2.688-.158.7-.415 1.255-.77 1.666-.345.411-.812.723-1.4.938zm8.426 3.01-.294-1.036a5.37 5.37 0 0 0 1.092-.364c.289-.131.532-.303.728-.518.196-.215.368-.485.518-.812l.35-.84-.028.532-3.066-7.182h1.372l2.45 6.034h-.364l2.45-6.034h1.316l-3.234 7.588a5.49 5.49 0 0 1-.644 1.148 3.378 3.378 0 0 1-1.61 1.218 6.447 6.447 0 0 1-1.036.266zm10.877-3.052c-1.055 0-1.89-.331-2.506-.994-.616-.663-.924-1.633-.924-2.912v-1.218c0-1.307.275-2.361.826-3.164.551-.803 1.405-1.344 2.562-1.624l2.576-.644.378 1.036-2.856.686c-.513.121-.938.341-1.274.658a3.052 3.052 0 0 0-.756 1.12 3.919 3.919 0 0 0-.238 1.372v.602h-.196c.112-.42.289-.784.532-1.092.252-.308.565-.541.938-.7a2.967 2.967 0 0 1 1.232-.252c.607 0 1.139.14 1.596.42.457.28.812.686 1.064 1.218.261.523.392 1.148.392 1.876 0 .747-.14 1.391-.42 1.932a2.89 2.89 0 0 1-1.162 1.246c-.504.289-1.092.434-1.764.434zm-.042-1.008c.653 0 1.167-.215 1.54-.644.383-.429.574-1.069.574-1.918 0-.831-.191-1.465-.574-1.904-.373-.439-.887-.658-1.54-.658s-1.171.215-1.554.644c-.373.429-.56 1.041-.56 1.834 0 .887.187 1.549.56 1.988.383.439.901.658 1.554.658zm8.441 1.008c-1.12 0-2.007-.322-2.66-.966-.644-.644-.966-1.531-.966-2.66 0-.747.14-1.391.42-1.932a3.139 3.139 0 0 1 1.19-1.274c.504-.308 1.092-.462 1.764-.462.644 0 1.19.14 1.638.42.448.271.788.658 1.022 1.162.233.504.35 1.101.35 1.792v.42h-5.39v-.756h4.522l-.238.182c0-.728-.164-1.293-.49-1.694-.318-.401-.789-.602-1.414-.602-.682 0-1.209.238-1.582.714-.374.467-.56 1.106-.56 1.918v.126c0 .859.21 1.507.63 1.946.429.439 1.022.658 1.778.658.42 0 .812-.061 1.176-.182a3.24 3.24 0 0 0 1.05-.602l.42.882a3.292 3.292 0 0 1-1.19.672 4.53 4.53 0 0 1-1.47.238z"/><rect width="215" height="34" x="303.5" y="104.5" stroke="#494BD9" rx="9.5"/><path fill="#494BD9" d="M320.558 126.126c-.989 0-1.839-.205-2.548-.616a4.063 4.063 0 0 1-1.61-1.75c-.373-.765-.56-1.666-.56-2.702s.187-1.932.56-2.688a4.063 4.063 0 0 1 1.61-1.75c.709-.411 1.559-.616 2.548-.616.709 0 1.339.107 1.89.322a4.075 4.075 0 0 1 1.442.91l-.476 1.05c-.448-.392-.891-.672-1.33-.84-.429-.177-.929-.266-1.498-.266-1.092 0-1.927.336-2.506 1.008-.579.672-.868 1.629-.868 2.87s.289 2.203.868 2.884c.579.672 1.414 1.008 2.506 1.008.569 0 1.069-.084 1.498-.252.439-.177.882-.462 1.33-.854l.476 1.036a4.228 4.228 0 0 1-1.456.924c-.551.215-1.176.322-1.876.322zm5.118-.126v-7.042h6.202V126h-1.26v-6.048h-3.682V126h-1.26zm8.381 0v-7.042h1.162v5.838h-.378l4.368-5.838h1.064V126h-1.162v-5.852h.392L335.121 126h-1.064zm11.46.126c-.7 0-1.306-.145-1.82-.434a3.118 3.118 0 0 1-1.204-1.274c-.28-.56-.42-1.223-.42-1.988 0-.756.145-1.4.434-1.932.29-.541.691-.952 1.204-1.232.514-.289 1.116-.434 1.806-.434.458 0 .901.079 1.33.238.43.149.78.369 1.05.658l-.434.896a2.566 2.566 0 0 0-.896-.574 2.576 2.576 0 0 0-.966-.196c-.69 0-1.232.224-1.624.672-.392.439-.588 1.078-.588 1.918 0 .849.196 1.503.588 1.96.392.457.934.686 1.624.686.308 0 .626-.061.952-.182.327-.121.63-.313.91-.574l.434.882a2.71 2.71 0 0 1-1.078.686 3.944 3.944 0 0 1-1.302.224zm7.054 0c-.691 0-1.288-.145-1.792-.434a3.072 3.072 0 0 1-1.176-1.26c-.28-.551-.42-1.204-.42-1.96 0-.747.14-1.391.42-1.932.28-.551.672-.971 1.176-1.26.504-.299 1.101-.448 1.792-.448.69 0 1.288.149 1.792.448a2.85 2.85 0 0 1 1.176 1.26c.28.541.42 1.185.42 1.932 0 .756-.14 1.409-.42 1.96a2.959 2.959 0 0 1-1.176 1.26c-.504.289-1.102.434-1.792.434zm0-1.008c.634 0 1.143-.224 1.526-.672.382-.448.574-1.106.574-1.974 0-.868-.192-1.521-.574-1.96-.383-.439-.892-.658-1.526-.658-.644 0-1.158.219-1.54.658-.374.439-.56 1.092-.56 1.96 0 .868.186 1.526.56 1.974.382.448.896.672 1.54.672zm5.207.882v-7.042h1.26v2.912h1.274l2.268-2.912h1.386l-2.632 3.43-.336-.392c.27.028.504.098.7.21.196.103.382.257.56.462.186.205.387.481.602.826l1.456 2.506h-1.372l-1.274-2.17a2.662 2.662 0 0 0-.42-.588 1.164 1.164 0 0 0-.476-.294 2.074 2.074 0 0 0-.644-.084h-1.092V126h-1.26zm11.124 3.178-.294-1.036a5.328 5.328 0 0 0 1.092-.364c.289-.131.532-.303.728-.518.196-.215.369-.485.518-.812l.35-.84-.028.532-3.066-7.182h1.372l2.45 6.034h-.364l2.45-6.034h1.316l-3.234 7.588a5.49 5.49 0 0 1-.644 1.148 3.357 3.357 0 0 1-1.61 1.218 6.42 6.42 0 0 1-1.036.266zm10.781-3.052c-.7 0-1.306-.145-1.82-.434a3.118 3.118 0 0 1-1.204-1.274c-.28-.56-.42-1.223-.42-1.988 0-.756.145-1.4.434-1.932.29-.541.691-.952 1.204-1.232.514-.289 1.116-.434 1.806-.434.458 0 .901.079 1.33.238.43.149.78.369 1.05.658l-.434.896a2.566 2.566 0 0 0-.896-.574 2.576 2.576 0 0 0-.966-.196c-.69 0-1.232.224-1.624.672-.392.439-.588 1.078-.588 1.918 0 .849.196 1.503.588 1.96.392.457.934.686 1.624.686.308 0 .626-.061.952-.182.327-.121.63-.313.91-.574l.434.882a2.71 2.71 0 0 1-1.078.686 3.944 3.944 0 0 1-1.302.224zm3.708.042-.448-.994a2.93 2.93 0 0 0 .812-.532 2.14 2.14 0 0 0 .518-.812 4.83 4.83 0 0 0 .28-1.218 15.71 15.71 0 0 0 .084-1.764v-1.89h5.194V126h-1.26v-6.048h-2.758v.924c0 1.083-.084 1.979-.252 2.688-.159.7-.416 1.255-.77 1.666-.346.411-.812.723-1.4.938zm8.425 3.01-.294-1.036a5.328 5.328 0 0 0 1.092-.364c.289-.131.532-.303.728-.518.196-.215.369-.485.518-.812l.35-.84-.028.532-3.066-7.182h1.372l2.45 6.034h-.364l2.45-6.034h1.316l-3.234 7.588a5.49 5.49 0 0 1-.644 1.148 3.357 3.357 0 0 1-1.61 1.218 6.42 6.42 0 0 1-1.036.266zm7.811-3.178v-7.042h4.998v1.022h-3.724V126h-1.274zm14.054 3.024v-4.55h.14c-.14.532-.387.943-.742 1.232-.345.28-.77.42-1.274.42s-.952-.149-1.344-.448c-.382-.299-.681-.719-.896-1.26-.214-.551-.322-1.199-.322-1.946 0-.747.103-1.391.308-1.932.215-.551.514-.971.896-1.26a2.178 2.178 0 0 1 1.358-.448c.504 0 .929.145 1.274.434.355.28.602.681.742 1.204h-.14v-4.774h1.26v4.774h-.14c.15-.523.397-.924.742-1.204.346-.289.77-.434 1.274-.434.514 0 .962.149 1.344.448.392.289.691.709.896 1.26.215.541.322 1.185.322 1.932 0 .747-.107 1.395-.322 1.946-.205.541-.499.961-.882 1.26-.382.299-.835.448-1.358.448-.494 0-.919-.14-1.274-.42-.345-.289-.592-.7-.742-1.232h.14v4.55h-1.26zm-1.568-3.892c.495 0 .882-.224 1.162-.672.29-.448.434-1.111.434-1.988 0-.859-.144-1.517-.434-1.974-.289-.457-.676-.686-1.162-.686-.494 0-.886.229-1.176.686-.28.457-.42 1.115-.42 1.974 0 .877.14 1.54.42 1.988.29.448.682.672 1.176.672zm4.396 0c.495 0 .887-.224 1.176-.672.29-.448.434-1.111.434-1.988 0-.859-.144-1.517-.434-1.974-.289-.457-.681-.686-1.176-.686-.494 0-.882.229-1.162.686-.28.457-.42 1.115-.42 1.974 0 .877.14 1.54.42 1.988.28.448.668.672 1.162.672zm4.679.868v-7.042h1.162v5.838h-.378l4.368-5.838h1.064V126h-1.162v-5.852h.392L422.252 126h-1.064zm9.906 0v-6.02h-2.534v-1.022h6.328v1.022h-2.534V126h-1.26zm4.955 0v-7.042h1.26v2.912h3.724v-2.912h1.26V126h-1.26v-3.122h-3.724V126h-1.26zm11.67.126c-1.12 0-2.007-.322-2.66-.966-.644-.644-.966-1.531-.966-2.66 0-.747.14-1.391.42-1.932a3.139 3.139 0 0 1 1.19-1.274c.504-.308 1.092-.462 1.764-.462.644 0 1.19.14 1.638.42a2.59 2.59 0 0 1 1.022 1.162c.233.504.35 1.101.35 1.792v.42h-5.39v-.756h4.522l-.238.182c0-.728-.163-1.293-.49-1.694-.317-.401-.789-.602-1.414-.602-.681 0-1.209.238-1.582.714-.373.467-.56 1.106-.56 1.918v.126c0 .859.21 1.507.63 1.946.429.439 1.022.658 1.778.658.42 0 .812-.061 1.176-.182a3.24 3.24 0 0 0 1.05-.602l.42.882a3.284 3.284 0 0 1-1.19.672 4.53 4.53 0 0 1-1.47.238zm7.597 0c-.7 0-1.306-.145-1.82-.434a3.118 3.118 0 0 1-1.204-1.274c-.28-.56-.42-1.223-.42-1.988 0-.756.145-1.4.434-1.932.29-.541.691-.952 1.204-1.232.514-.289 1.116-.434 1.806-.434.458 0 .901.079 1.33.238.43.149.78.369 1.05.658l-.434.896a2.566 2.566 0 0 0-.896-.574 2.576 2.576 0 0 0-.966-.196c-.69 0-1.232.224-1.624.672-.392.439-.588 1.078-.588 1.918 0 .849.196 1.503.588 1.96.392.457.934.686 1.624.686.308 0 .626-.061.952-.182.327-.121.63-.313.91-.574l.434.882a2.71 2.71 0 0 1-1.078.686 3.944 3.944 0 0 1-1.302.224zm3.946-3.444v-1.036h4.046v1.036h-4.046zm12.217 5.138V126h-6.09v-7.042h1.26v6.048h3.528v-6.048h1.26v6.048h1.12v2.814h-1.078zm5.785-1.694c-1.12 0-2.007-.322-2.66-.966-.644-.644-.966-1.531-.966-2.66 0-.747.14-1.391.42-1.932a3.139 3.139 0 0 1 1.19-1.274c.504-.308 1.092-.462 1.764-.462.644 0 1.19.14 1.638.42.448.271.788.658 1.022 1.162.233.504.35 1.101.35 1.792v.42h-5.39v-.756h4.522l-.238.182c0-.728-.164-1.293-.49-1.694-.318-.401-.789-.602-1.414-.602-.682 0-1.209.238-1.582.714-.374.467-.56 1.106-.56 1.918v.126c0 .859.21 1.507.63 1.946.429.439 1.022.658 1.778.658.42 0 .812-.061 1.176-.182a3.24 3.24 0 0 0 1.05-.602l.42.882a3.292 3.292 0 0 1-1.19.672 4.53 4.53 0 0 1-1.47.238zm4.531-.126v-7.042h1.26v2.912h3.724v-2.912h1.26V126h-1.26v-3.122h-3.724V126h-1.26zm9.934 0v-6.02h-2.534v-1.022h6.328v1.022h-2.534V126h-1.26zm4.997 3.024v-8.4a12.877 12.877 0 0 0-.112-1.666h1.232l.154 1.624h-.154c.14-.541.438-.966.896-1.274.457-.317 1.003-.476 1.638-.476.625 0 1.171.145 1.638.434.466.289.826.709 1.078 1.26.261.541.392 1.19.392 1.946s-.131 1.409-.392 1.96c-.252.551-.612.971-1.078 1.26-.467.289-1.013.434-1.638.434-.626 0-1.167-.154-1.624-.462a2.331 2.331 0 0 1-.91-1.274H498v4.634h-1.274zm3.36-3.906c.644 0 1.157-.224 1.54-.672.382-.448.574-1.106.574-1.974 0-.868-.192-1.521-.574-1.96-.383-.439-.896-.658-1.54-.658s-1.158.219-1.54.658c-.374.439-.56 1.092-.56 1.96 0 .868.186 1.526.56 1.974.382.448.896.672 1.54.672z"/><rect width="144" height="34" x="212.5" y="149.5" stroke="#494BD9" rx="9.5"/><path fill="#494BD9" d="M225.204 171v-9.87h8.33V171h-1.288v-8.778h-5.754V171h-1.288zm10.662 3.024v-8.4a12.189 12.189 0 0 0-.112-1.666h1.232l.154 1.624h-.154a2.13 2.13 0 0 1 .896-1.274c.458-.317 1.004-.476 1.638-.476.626 0 1.172.145 1.638.434.467.289.826.709 1.078 1.26.262.541.392 1.19.392 1.946s-.13 1.409-.392 1.96c-.252.551-.611.971-1.078 1.26-.466.289-1.012.434-1.638.434-.625 0-1.166-.154-1.624-.462a2.336 2.336 0 0 1-.91-1.274h.154v4.634h-1.274zm3.36-3.906c.644 0 1.158-.224 1.54-.672.383-.448.574-1.106.574-1.974 0-.868-.191-1.521-.574-1.96-.382-.439-.896-.658-1.54-.658s-1.157.219-1.54.658c-.373.439-.56 1.092-.56 1.96 0 .868.187 1.526.56 1.974.383.448.896.672 1.54.672zm8.235 1.008c-.69 0-1.288-.145-1.792-.434a3.072 3.072 0 0 1-1.176-1.26c-.28-.551-.42-1.204-.42-1.96 0-.747.14-1.391.42-1.932.28-.551.672-.971 1.176-1.26.504-.299 1.102-.448 1.792-.448.691 0 1.288.149 1.792.448a2.84 2.84 0 0 1 1.176 1.26c.28.541.42 1.185.42 1.932 0 .756-.14 1.409-.42 1.96-.27.541-.662.961-1.176 1.26-.504.289-1.101.434-1.792.434zm0-1.008c.635 0 1.144-.224 1.526-.672.383-.448.574-1.106.574-1.974 0-.868-.191-1.521-.574-1.96-.382-.439-.891-.658-1.526-.658-.644 0-1.157.219-1.54.658-.373.439-.56 1.092-.56 1.96 0 .868.187 1.526.56 1.974.383.448.896.672 1.54.672zm8.273 1.008c-1.054 0-1.89-.331-2.506-.994-.616-.663-.924-1.633-.924-2.912v-1.218c0-1.307.276-2.361.826-3.164.551-.803 1.405-1.344 2.562-1.624l2.576-.644.378 1.036-2.856.686c-.513.121-.938.341-1.274.658a3.052 3.052 0 0 0-.756 1.12 3.941 3.941 0 0 0-.238 1.372v.602h-.196c.112-.42.29-.784.532-1.092.252-.308.565-.541.938-.7a2.97 2.97 0 0 1 1.232-.252c.607 0 1.139.14 1.596.42.458.28.812.686 1.064 1.218.262.523.392 1.148.392 1.876 0 .747-.14 1.391-.42 1.932-.27.541-.658.957-1.162 1.246-.504.289-1.092.434-1.764.434zm-.042-1.008c.654 0 1.167-.215 1.54-.644.383-.429.574-1.069.574-1.918 0-.831-.191-1.465-.574-1.904-.373-.439-.886-.658-1.54-.658-.653 0-1.171.215-1.554.644-.373.429-.56 1.041-.56 1.834 0 .887.187 1.549.56 1.988.383.439.901.658 1.554.658zm5.193.882v-7.042h1.26v2.912h3.724v-2.912h1.26V171h-1.26v-3.122h-3.724V171h-1.26zm11.432.126c-.691 0-1.288-.145-1.792-.434a3.072 3.072 0 0 1-1.176-1.26c-.28-.551-.42-1.204-.42-1.96 0-.747.14-1.391.42-1.932.28-.551.672-.971 1.176-1.26.504-.299 1.101-.448 1.792-.448.691 0 1.288.149 1.792.448a2.85 2.85 0 0 1 1.176 1.26c.28.541.42 1.185.42 1.932 0 .756-.14 1.409-.42 1.96a2.959 2.959 0 0 1-1.176 1.26c-.504.289-1.101.434-1.792.434zm0-1.008c.635 0 1.143-.224 1.526-.672.383-.448.574-1.106.574-1.974 0-.868-.191-1.521-.574-1.96-.383-.439-.891-.658-1.526-.658-.644 0-1.157.219-1.54.658-.373.439-.56 1.092-.56 1.96 0 .868.187 1.526.56 1.974.383.448.896.672 1.54.672zm8.455 1.008c-1.12 0-2.007-.322-2.66-.966-.644-.644-.966-1.531-.966-2.66 0-.747.14-1.391.42-1.932a3.139 3.139 0 0 1 1.19-1.274c.504-.308 1.092-.462 1.764-.462.644 0 1.19.14 1.638.42.448.271.788.658 1.022 1.162.233.504.35 1.101.35 1.792v.42h-5.39v-.756h4.522l-.238.182c0-.728-.164-1.293-.49-1.694-.318-.401-.789-.602-1.414-.602-.682 0-1.209.238-1.582.714-.374.467-.56 1.106-.56 1.918v.126c0 .859.21 1.507.63 1.946.429.439 1.022.658 1.778.658.42 0 .812-.061 1.176-.182a3.24 3.24 0 0 0 1.05-.602l.42.882a3.292 3.292 0 0 1-1.19.672 4.53 4.53 0 0 1-1.47.238zm10.616 0c-.616 0-1.19-.079-1.722-.238-.532-.159-.97-.383-1.316-.672l.42-.882c.346.28.738.49 1.176.63.439.14.915.21 1.428.21.672 0 1.158-.098 1.456-.294.308-.205.462-.499.462-.882 0-.364-.126-.639-.378-.826-.252-.187-.62-.28-1.106-.28H290.1v-.924h1.554c.439 0 .78-.093 1.022-.28a.957.957 0 0 0 .378-.798.938.938 0 0 0-.42-.812c-.28-.205-.709-.308-1.288-.308-.485 0-.928.065-1.33.196a4.084 4.084 0 0 0-1.148.56l-.406-.826a3.768 3.768 0 0 1 1.344-.658 6.377 6.377 0 0 1 1.68-.21c.887 0 1.564.173 2.03.518.476.336.714.817.714 1.442 0 .439-.149.817-.448 1.134-.298.308-.695.495-1.19.56v-.182c.56.028 1.013.201 1.358.518.346.308.518.719.518 1.232 0 .625-.261 1.129-.784 1.512-.522.373-1.288.56-2.296.56zm7.514 0c-.616 0-1.157-.145-1.624-.434-.467-.289-.831-.709-1.092-1.26-.261-.551-.392-1.204-.392-1.96s.131-1.405.392-1.946c.261-.551.625-.971 1.092-1.26.467-.289 1.008-.434 1.624-.434.625 0 1.167.159 1.624.476.467.308.775.733.924 1.274h-.168l.154-1.624h1.232l-.084.84c-.019.28-.028.555-.028.826V171h-1.274v-1.61h.154a2.224 2.224 0 0 1-.924 1.274c-.457.308-.994.462-1.61.462zm.294-1.008c.635 0 1.143-.224 1.526-.672.383-.448.574-1.106.574-1.974 0-.868-.191-1.521-.574-1.96-.383-.439-.891-.658-1.526-.658s-1.148.219-1.54.658c-.383.439-.574 1.092-.574 1.96 0 .868.191 1.526.574 1.974.383.448.896.672 1.54.672zm5.603.882v-7.042h1.26v2.912h3.724v-2.912h1.26V171h-1.26v-3.122h-3.724V171h-1.26zm7.862 0 1.106-1.918c.177-.308.401-.555.672-.742.271-.196.555-.294.854-.294h.224l-.014.126c-.793 0-1.414-.177-1.862-.532-.448-.364-.672-.887-.672-1.568 0-.672.219-1.19.658-1.554.439-.373 1.092-.56 1.96-.56h3.206V171h-1.176v-2.66h-1.008c-.364 0-.677.093-.938.28a2.071 2.071 0 0 0-.644.714l-.952 1.666h-1.414zm3.15-3.542h1.806v-2.632h-1.806c-.551 0-.961.117-1.232.35-.261.233-.392.555-.392.966 0 .42.131.747.392.98.271.224.681.336 1.232.336zm6.674 3.542v-6.02h-2.534v-1.022h6.328v1.022h-2.534V171h-1.26zm4.955 0v-7.042h1.162v5.838h-.378l4.368-5.838h1.064V171h-1.162v-5.852h.392L328.504 171h-1.064zm11.642.126c-1.12 0-2.006-.322-2.66-.966-.644-.644-.966-1.531-.966-2.66 0-.747.14-1.391.42-1.932.29-.551.686-.975 1.19-1.274.504-.308 1.092-.462 1.764-.462.644 0 1.19.14 1.638.42a2.59 2.59 0 0 1 1.022 1.162c.234.504.35 1.101.35 1.792v.42h-5.39v-.756h4.522l-.238.182c0-.728-.163-1.293-.49-1.694-.317-.401-.788-.602-1.414-.602-.681 0-1.208.238-1.582.714-.373.467-.56 1.106-.56 1.918v.126c0 .859.21 1.507.63 1.946.43.439 1.022.658 1.778.658.42 0 .812-.061 1.176-.182a3.24 3.24 0 0 0 1.05-.602l.42.882a3.284 3.284 0 0 1-1.19.672 4.52 4.52 0 0 1-1.47.238z"/><rect width="179" height="34" x="367.5" y="149.5" stroke="#494BD9" rx="9.5"/><path fill="#494BD9" d="M380.204 171v-9.87h4.088c1.055 0 1.862.252 2.422.756s.84 1.199.84 2.086c0 .887-.28 1.587-.84 2.1-.56.504-1.367.756-2.422.756h-2.786V171h-1.302zm1.302-5.236h2.66c.691 0 1.213-.154 1.568-.462.355-.317.532-.761.532-1.33 0-.569-.177-1.008-.532-1.316-.355-.308-.877-.462-1.568-.462h-2.66v3.57zm10.326 5.362c-.616 0-1.158-.145-1.624-.434-.467-.289-.831-.709-1.092-1.26-.262-.551-.392-1.204-.392-1.96s.13-1.405.392-1.946c.261-.551.625-.971 1.092-1.26.466-.289 1.008-.434 1.624-.434.625 0 1.166.159 1.624.476.466.308.774.733.924 1.274h-.168l.154-1.624h1.232l-.084.84c-.019.28-.028.555-.028.826V171h-1.274v-1.61h.154c-.15.532-.458.957-.924 1.274-.458.308-.994.462-1.61.462zm.294-1.008c.634 0 1.143-.224 1.526-.672.382-.448.574-1.106.574-1.974 0-.868-.192-1.521-.574-1.96-.383-.439-.892-.658-1.526-.658-.635 0-1.148.219-1.54.658-.383.439-.574 1.092-.574 1.96 0 .868.191 1.526.574 1.974.382.448.896.672 1.54.672zm8.669 1.008c-.7 0-1.307-.145-1.82-.434a3.105 3.105 0 0 1-1.204-1.274c-.28-.56-.42-1.223-.42-1.988 0-.756.144-1.4.434-1.932.289-.541.69-.952 1.204-1.232.513-.289 1.115-.434 1.806-.434.457 0 .9.079 1.33.238.429.149.779.369 1.05.658l-.434.896a2.585 2.585 0 0 0-.896-.574 2.584 2.584 0 0 0-.966-.196c-.691 0-1.232.224-1.624.672-.392.439-.588 1.078-.588 1.918 0 .849.196 1.503.588 1.96.392.457.933.686 1.624.686a2.735 2.735 0 0 0 1.862-.756l.434.882c-.28.299-.64.527-1.078.686-.43.149-.864.224-1.302.224zm4.043-.126v-7.042h6.202V171h-1.26v-6.048h-3.682V171h-1.26zm11.391.126c-.691 0-1.288-.145-1.792-.434a3.072 3.072 0 0 1-1.176-1.26c-.28-.551-.42-1.204-.42-1.96 0-.747.14-1.391.42-1.932.28-.551.672-.971 1.176-1.26.504-.299 1.101-.448 1.792-.448.691 0 1.288.149 1.792.448a2.85 2.85 0 0 1 1.176 1.26c.28.541.42 1.185.42 1.932 0 .756-.14 1.409-.42 1.96a2.959 2.959 0 0 1-1.176 1.26c-.504.289-1.101.434-1.792.434zm0-1.008c.635 0 1.143-.224 1.526-.672.383-.448.574-1.106.574-1.974 0-.868-.191-1.521-.574-1.96-.383-.439-.891-.658-1.526-.658-.644 0-1.157.219-1.54.658-.373.439-.56 1.092-.56 1.96 0 .868.187 1.526.56 1.974.383.448.896.672 1.54.672zm4.734 1.05-.448-.994c.327-.149.597-.327.812-.532.224-.215.397-.485.518-.812.131-.327.224-.733.28-1.218a15.71 15.71 0 0 0 .084-1.764v-1.89h5.194V171h-1.26v-6.048h-2.758v.924c0 1.083-.084 1.979-.252 2.688-.159.7-.415 1.255-.77 1.666-.345.411-.812.723-1.4.938zm11.631-.042c-.69 0-1.288-.145-1.792-.434a3.072 3.072 0 0 1-1.176-1.26c-.28-.551-.42-1.204-.42-1.96 0-.747.14-1.391.42-1.932.28-.551.672-.971 1.176-1.26.504-.299 1.102-.448 1.792-.448.691 0 1.288.149 1.792.448a2.84 2.84 0 0 1 1.176 1.26c.28.541.42 1.185.42 1.932 0 .756-.14 1.409-.42 1.96-.27.541-.662.961-1.176 1.26-.504.289-1.101.434-1.792.434zm0-1.008c.635 0 1.144-.224 1.526-.672.383-.448.574-1.106.574-1.974 0-.868-.191-1.521-.574-1.96-.382-.439-.891-.658-1.526-.658-.644 0-1.157.219-1.54.658-.373.439-.56 1.092-.56 1.96 0 .868.187 1.526.56 1.974.383.448.896.672 1.54.672zm4.115.882 1.456-2.506c.215-.345.411-.621.588-.826.177-.205.364-.359.56-.462.205-.112.443-.182.714-.21l-.308.392-2.674-3.43h1.4l2.282 2.912h1.078v-2.912h1.26v2.912h1.064l2.268-2.912h1.414l-2.674 3.43-.322-.392c.271.028.504.098.7.21.205.103.401.257.588.462.187.205.383.481.588.826l1.456 2.506h-1.358l-1.274-2.17a2.986 2.986 0 0 0-.434-.588 1.164 1.164 0 0 0-.476-.294 2.074 2.074 0 0 0-.644-.084h-.896V171h-1.26v-3.136h-.91c-.261 0-.481.028-.658.084a1.179 1.179 0 0 0-.462.294c-.131.14-.275.336-.434.588l-1.26 2.17h-1.372zm15.783.126c-1.12 0-2.006-.322-2.66-.966-.644-.644-.966-1.531-.966-2.66 0-.747.14-1.391.42-1.932.29-.551.686-.975 1.19-1.274.504-.308 1.092-.462 1.764-.462.644 0 1.19.14 1.638.42a2.59 2.59 0 0 1 1.022 1.162c.234.504.35 1.101.35 1.792v.42h-5.39v-.756h4.522l-.238.182c0-.728-.163-1.293-.49-1.694-.317-.401-.788-.602-1.414-.602-.681 0-1.208.238-1.582.714-.373.467-.56 1.106-.56 1.918v.126c0 .859.21 1.507.63 1.946.43.439 1.022.658 1.778.658.42 0 .812-.061 1.176-.182a3.24 3.24 0 0 0 1.05-.602l.42.882a3.284 3.284 0 0 1-1.19.672 4.52 4.52 0 0 1-1.47.238zm4.532-.126v-7.042h1.26v2.912h3.724v-2.912h1.26V171h-1.26v-3.122h-3.724V171h-1.26zm8.422 0v-7.042h1.162v5.838h-.378l4.368-5.838h1.064V171H470.5v-5.852h.392L466.51 171h-1.064zm11.642.126c-1.12 0-2.007-.322-2.66-.966-.644-.644-.966-1.531-.966-2.66 0-.747.14-1.391.42-1.932a3.139 3.139 0 0 1 1.19-1.274c.504-.308 1.092-.462 1.764-.462.644 0 1.19.14 1.638.42a2.59 2.59 0 0 1 1.022 1.162c.233.504.35 1.101.35 1.792v.42h-5.39v-.756h4.522l-.238.182c0-.728-.163-1.293-.49-1.694-.317-.401-.789-.602-1.414-.602-.681 0-1.209.238-1.582.714-.373.467-.56 1.106-.56 1.918v.126c0 .859.21 1.507.63 1.946.429.439 1.022.658 1.778.658.42 0 .812-.061 1.176-.182a3.24 3.24 0 0 0 1.05-.602l.42.882a3.284 3.284 0 0 1-1.19.672 4.53 4.53 0 0 1-1.47.238zm8.223-.126v-7.042h1.26v2.912h1.274l2.268-2.912h1.386l-2.632 3.43-.336-.392c.27.028.504.098.7.21.196.103.382.257.56.462.186.205.387.481.602.826l1.456 2.506h-1.372l-1.274-2.17a2.662 2.662 0 0 0-.42-.588 1.164 1.164 0 0 0-.476-.294 2.074 2.074 0 0 0-.644-.084h-1.092V171h-1.26zm7.293.168-.448-.994a2.93 2.93 0 0 0 .812-.532 2.14 2.14 0 0 0 .518-.812 4.83 4.83 0 0 0 .28-1.218 15.71 15.71 0 0 0 .084-1.764v-1.89h5.194V171h-1.26v-6.048h-2.758v.924c0 1.083-.084 1.979-.252 2.688-.159.7-.416 1.255-.77 1.666-.346.411-.812.723-1.4.938zm8.425 3.01-.294-1.036a5.37 5.37 0 0 0 1.092-.364c.289-.131.532-.303.728-.518.196-.215.368-.485.518-.812l.35-.84-.028.532-3.066-7.182h1.372l2.45 6.034h-.364l2.45-6.034h1.316l-3.234 7.588a5.49 5.49 0 0 1-.644 1.148 3.378 3.378 0 0 1-1.61 1.218 6.447 6.447 0 0 1-1.036.266zm10.877-3.052c-1.055 0-1.89-.331-2.506-.994-.616-.663-.924-1.633-.924-2.912v-1.218c0-1.307.275-2.361.826-3.164.551-.803 1.405-1.344 2.562-1.624l2.576-.644.378 1.036-2.856.686c-.513.121-.938.341-1.274.658a3.052 3.052 0 0 0-.756 1.12 3.919 3.919 0 0 0-.238 1.372v.602h-.196c.112-.42.289-.784.532-1.092.252-.308.565-.541.938-.7A2.967 2.967 0 0 1 512.2 164c.607 0 1.139.14 1.596.42.457.28.812.686 1.064 1.218.261.523.392 1.148.392 1.876 0 .747-.14 1.391-.42 1.932a2.89 2.89 0 0 1-1.162 1.246c-.504.289-1.092.434-1.764.434zm-.042-1.008c.653 0 1.167-.215 1.54-.644.383-.429.574-1.069.574-1.918 0-.831-.191-1.465-.574-1.904-.373-.439-.887-.658-1.54-.658s-1.171.215-1.554.644c-.373.429-.56 1.041-.56 1.834 0 .887.187 1.549.56 1.988.383.439.901.658 1.554.658zm8.203 1.008c-.691 0-1.288-.145-1.792-.434a3.072 3.072 0 0 1-1.176-1.26c-.28-.551-.42-1.204-.42-1.96 0-.747.14-1.391.42-1.932.28-.551.672-.971 1.176-1.26.504-.299 1.101-.448 1.792-.448.691 0 1.288.149 1.792.448a2.85 2.85 0 0 1 1.176 1.26c.28.541.42 1.185.42 1.932 0 .756-.14 1.409-.42 1.96a2.959 2.959 0 0 1-1.176 1.26c-.504.289-1.101.434-1.792.434zm0-1.008c.635 0 1.143-.224 1.526-.672.383-.448.574-1.106.574-1.974 0-.868-.191-1.521-.574-1.96-.383-.439-.891-.658-1.526-.658-.644 0-1.157.219-1.54.658-.373.439-.56 1.092-.56 1.96 0 .868.187 1.526.56 1.974.383.448.896.672 1.54.672zm5.207.882v-7.042h3.472c.83 0 1.446.159 1.848.476.41.317.616.775.616 1.372 0 .448-.154.826-.462 1.134-.308.299-.71.481-1.204.546v-.182c.588.019 1.05.191 1.386.518.345.317.518.728.518 1.232 0 .597-.229 1.073-.686 1.428-.448.345-1.078.518-1.89.518h-3.598zm1.204-.84h2.31c.476 0 .84-.098 1.092-.294.252-.205.378-.495.378-.868 0-.383-.126-.672-.378-.868-.252-.196-.616-.294-1.092-.294h-2.31v2.324zm0-3.164h2.156c.438 0 .779-.098 1.022-.294.242-.196.364-.467.364-.812 0-.355-.122-.625-.364-.812-.243-.187-.584-.28-1.022-.28h-2.156v2.198z"/><rect width="100" height="34" x="212.5" y="194.5" stroke="#494BD9" rx="9.5"/><path fill="#494BD9" d="m224.196 216 4.368-9.87h1.134l4.438 9.87h-1.344l-1.218-2.8.56.336h-6.006l.616-.336-1.218 2.8h-1.33zm4.914-8.414-2.184 5.18-.336-.294h5.082l-.266.294-2.24-5.18h-.056zm9.111 8.54c-1.055 0-1.89-.331-2.506-.994-.616-.663-.924-1.633-.924-2.912v-1.218c0-1.307.275-2.361.826-3.164.55-.803 1.404-1.344 2.561-1.624l2.577-.644.377 1.036-2.855.686c-.514.121-.938.341-1.274.658a3.052 3.052 0 0 0-.756 1.12 3.919 3.919 0 0 0-.238 1.372v.602h-.197c.113-.42.29-.784.533-1.092a2.41 2.41 0 0 1 .938-.7 2.967 2.967 0 0 1 1.232-.252c.606 0 1.138.14 1.596.42.457.28.812.686 1.064 1.218.261.523.392 1.148.392 1.876 0 .747-.14 1.391-.42 1.932a2.89 2.89 0 0 1-1.162 1.246c-.504.289-1.092.434-1.764.434zm-.043-1.008c.654 0 1.167-.215 1.541-.644.382-.429.574-1.069.574-1.918 0-.831-.192-1.465-.574-1.904-.374-.439-.887-.658-1.541-.658-.653 0-1.171.215-1.553.644-.374.429-.56 1.041-.56 1.834 0 .887.186 1.549.56 1.988.382.439.9.658 1.553.658zm8.203 1.008c-.69 0-1.288-.145-1.792-.434a3.072 3.072 0 0 1-1.176-1.26c-.28-.551-.42-1.204-.42-1.96 0-.747.14-1.391.42-1.932.28-.551.672-.971 1.176-1.26.504-.299 1.102-.448 1.792-.448.691 0 1.288.149 1.792.448a2.84 2.84 0 0 1 1.176 1.26c.28.541.42 1.185.42 1.932 0 .756-.14 1.409-.42 1.96-.27.541-.662.961-1.176 1.26-.504.289-1.101.434-1.792.434zm0-1.008c.635 0 1.144-.224 1.526-.672.383-.448.574-1.106.574-1.974 0-.868-.191-1.521-.574-1.96-.382-.439-.891-.658-1.526-.658-.644 0-1.157.219-1.54.658-.373.439-.56 1.092-.56 1.96 0 .868.187 1.526.56 1.974.383.448.896.672 1.54.672zm5.207.882v-7.042h1.26v2.912h3.724v-2.912h1.26V216h-1.26v-3.122h-3.724V216h-1.26zm11.67.126c-1.12 0-2.007-.322-2.66-.966-.644-.644-.966-1.531-.966-2.66 0-.747.14-1.391.42-1.932a3.139 3.139 0 0 1 1.19-1.274c.504-.308 1.092-.462 1.764-.462.644 0 1.19.14 1.638.42a2.59 2.59 0 0 1 1.022 1.162c.233.504.35 1.101.35 1.792v.42h-5.39v-.756h4.522l-.238.182c0-.728-.163-1.293-.49-1.694-.317-.401-.789-.602-1.414-.602-.681 0-1.209.238-1.582.714-.373.467-.56 1.106-.56 1.918v.126c0 .859.21 1.507.63 1.946.429.439 1.022.658 1.778.658.42 0 .812-.061 1.176-.182a3.24 3.24 0 0 0 1.05-.602l.42.882a3.284 3.284 0 0 1-1.19.672 4.53 4.53 0 0 1-1.47.238zm4.531-.126v-7.042h1.064l2.59 4.606 2.604-4.606h1.05V216h-1.12v-5.614h.308l-2.52 4.48h-.63l-2.52-4.494h.294V216h-1.12zm12.737.126c-1.12 0-2.007-.322-2.66-.966-.644-.644-.966-1.531-.966-2.66 0-.747.14-1.391.42-1.932a3.139 3.139 0 0 1 1.19-1.274c.504-.308 1.092-.462 1.764-.462.644 0 1.19.14 1.638.42.448.271.788.658 1.022 1.162.233.504.35 1.101.35 1.792v.42h-5.39v-.756h4.522l-.238.182c0-.728-.164-1.293-.49-1.694-.318-.401-.789-.602-1.414-.602-.682 0-1.209.238-1.582.714-.374.467-.56 1.106-.56 1.918v.126c0 .859.21 1.507.63 1.946.429.439 1.022.658 1.778.658.42 0 .812-.061 1.176-.182a3.24 3.24 0 0 0 1.05-.602l.42.882a3.292 3.292 0 0 1-1.19.672 4.53 4.53 0 0 1-1.47.238zm4.531-.126v-7.042h1.26v2.912h3.724v-2.912h1.26V216h-1.26v-3.122h-3.724V216h-1.26zm9.934 0v-6.02h-2.534v-1.022h6.328v1.022h-2.534V216h-1.26z"/><mask id="e" fill="#fff"><path d="M192 249h390v68H192v-68z"/></mask><path fill="#DDDDED" d="M192 250h390v-2H192v2z" mask="url(#e)"/><path fill="#88878A" d="M213.408 289v-11.28h1.328v4.992h6.8v-4.992h1.312V289h-1.312v-5.152h-6.8V289h-1.328zm15.242.144c-.715 0-1.339-.165-1.872-.496-.533-.341-.949-.821-1.248-1.44-.288-.619-.432-1.36-.432-2.224 0-.875.144-1.621.432-2.24.299-.619.715-1.093 1.248-1.424.533-.331 1.157-.496 1.872-.496.725 0 1.349.187 1.872.56.533.363.885.859 1.056 1.488h-.192l.176-1.904h1.248l-.096.944c-.021.309-.032.613-.032.912V289h-1.296v-1.888h.176a2.555 2.555 0 0 1-1.056 1.488c-.533.363-1.152.544-1.856.544zm.256-1.056c.768 0 1.376-.261 1.824-.784.448-.533.672-1.307.672-2.32 0-1.024-.224-1.797-.672-2.32-.448-.533-1.056-.8-1.824-.8-.757 0-1.365.267-1.824.8-.448.523-.672 1.296-.672 2.32 0 1.013.224 1.787.672 2.32.459.523 1.067.784 1.824.784zm6.39.912v-8.032h6.96V289h-1.296v-7.008h-4.368V289h-1.296zm9.515 0v-8.032h1.184v6.832h-.432l5.12-6.832h1.088V289h-1.168v-6.848h.432l-5.12 6.848h-1.104zm9.516 0v-8.032h1.232v7.008h3.408v-7.008h1.216v7.008h3.408v-7.008h1.248V289h-10.512zm13.078 0v-8.032h1.184v6.832h-.432l5.12-6.832h1.088V289h-1.168v-6.848h.432l-5.12 6.848h-1.104zm11.228 0v-6.992h-2.912v-1.04h7.136v1.04h-2.928V289h-1.296zm9.17.144c-1.259 0-2.251-.363-2.976-1.088-.726-.736-1.088-1.755-1.088-3.056 0-.843.16-1.573.48-2.192a3.484 3.484 0 0 1 1.344-1.456c.576-.352 1.237-.528 1.984-.528.736 0 1.354.155 1.856.464.501.309.885.752 1.152 1.328.266.565.4 1.237.4 2.016v.48h-6.224v-.816h5.376l-.272.208c0-.853-.192-1.52-.576-2-.384-.48-.955-.72-1.712-.72-.8 0-1.424.283-1.872.848-.448.555-.672 1.307-.672 2.256v.144c0 1.003.245 1.765.736 2.288.501.512 1.2.768 2.096.768.48 0 .928-.069 1.344-.208a3.77 3.77 0 0 0 1.216-.72l.448.912c-.352.341-.8.608-1.344.8a5.246 5.246 0 0 1-1.696.272zm11.111-.144v-6.992h-2.912v-1.04h7.136v1.04h-2.928V289h-1.296zm9.17.144c-1.259 0-2.251-.363-2.976-1.088-.725-.736-1.088-1.755-1.088-3.056 0-.843.16-1.573.48-2.192a3.484 3.484 0 0 1 1.344-1.456c.576-.352 1.237-.528 1.984-.528.736 0 1.355.155 1.856.464.501.309.885.752 1.152 1.328.267.565.4 1.237.4 2.016v.48h-6.224v-.816h5.376l-.272.208c0-.853-.192-1.52-.576-2-.384-.48-.955-.72-1.712-.72-.8 0-1.424.283-1.872.848-.448.555-.672 1.307-.672 2.256v.144c0 1.003.245 1.765.736 2.288.501.512 1.2.768 2.096.768.48 0 .928-.069 1.344-.208a3.76 3.76 0 0 0 1.216-.72l.448.912c-.352.341-.8.608-1.344.8a5.242 5.242 0 0 1-1.696.272zm5.227-.144v-8.032h1.296v3.376h1.52l2.656-3.376h1.424l-3.04 3.888-.352-.4c.31.032.576.107.8.224.224.117.438.293.64.528.214.235.443.56.688.976l1.664 2.816h-1.392l-1.472-2.496c-.181-.309-.357-.544-.528-.704a1.312 1.312 0 0 0-.56-.336 2.587 2.587 0 0 0-.768-.096h-1.28V289h-1.296zm12.05.144c-.79 0-1.478-.171-2.064-.512a3.484 3.484 0 0 1-1.344-1.456c-.31-.629-.464-1.376-.464-2.24 0-.875.16-1.616.48-2.224a3.298 3.298 0 0 1 1.344-1.408c.586-.32 1.269-.48 2.048-.48.512 0 1.008.091 1.488.272.49.181.896.437 1.216.768l-.464.928a3.164 3.164 0 0 0-1.056-.688 2.97 2.97 0 0 0-1.104-.224c-.832 0-1.478.261-1.936.784-.459.523-.688 1.285-.688 2.288 0 .992.229 1.76.688 2.304.458.544 1.104.816 1.936.816a3.11 3.11 0 0 0 1.088-.208 3.02 3.02 0 0 0 1.072-.688l.464.912a3.265 3.265 0 0 1-1.232.784 4.233 4.233 0 0 1-1.472.272zm6.35-.144v-6.992h-2.912v-1.04h7.136v1.04h-2.928V289h-1.296z"/><path stroke="#88878A" stroke-linecap="round" stroke-linejoin="round" stroke-width="1.25" d="m547.194 280.812-4.77 4.821L537 282.24c-.778-.487-.616-1.667.263-1.924l12.88-3.772c.805-.236 1.551.517 1.312 1.324l-3.811 12.871c-.261.88-1.435 1.038-1.916.257l-3.306-5.362"/></g><rect width="398" height="738" x="188" y="-417" stroke="#DDDDED" stroke-width="8" rx="24"/></g></g><defs><clipPath id="a"><rect width="773" height="350" fill="#fff" rx="32"/></clipPath><clipPath id="d"><rect width="390" height="730" x="192" y="-413" fill="#fff" rx="20"/></clipPath><linearGradient id="b" x1="225.621" x2="536.551" y1="91.803" y2="583.989" gradientUnits="userSpaceOnUse"><stop stop-color="#494BD9"/><stop offset="1" stop-color="#EBEBFB"/></linearGradient><filter id="c" width="576" height="1060" x="99" y="-437" color-interpolation-filters="sRGB" filterUnits="userSpaceOnUse"><feFlood flood-opacity="0" result="BackgroundImageFix"/><feColorMatrix in="SourceAlpha" result="hardAlpha" values="0 0 0 0 0 0 0 0 0 0 0 0 0 0 0 0 0 0 127 0"/><feOffset dy="13"/><feGaussianBlur stdDeviation="14.5"/><feColorMatrix values="0 0 0 0 0.0745098 0 0 0 0 0.0823529 0 0 0 0 0.243137 0 0 0 0.06 0"/><feBlend in2="BackgroundImageFix" result="effect1_dropShadow_1861_8203"/><feColorMatrix in="SourceAlpha" result="hardAlpha" values="0 0 0 0 0 0 0 0 0 0 0 0 0 0 0 0 0 0 127 0"/><feOffset dy="120"/><feGaussianBlur stdDeviation="36"/><feColorMatrix values="0 0 0 0 0.0745098 0 0 0 0 0.0823529 0 0 0 0 0.243137 0 0 0 0.03 0"/><feBlend in2="effect1_dropShadow_1861_8203" result="effect2_dropShadow_1861_8203"/><feColorMatrix in="SourceAlpha" result="hardAlpha" values="0 0 0 0 0 0 0 0 0 0 0 0 0 0 0 0 0 0 127 0"/><feOffset dy="213"/><feGaussianBlur stdDeviation="42.5"/><feColorMatrix values="0 0 0 0 0.0745098 0 0 0 0 0.0823529 0 0 0 0 0.243137 0 0 0 0.01 0"/><feBlend in2="effect2_dropShadow_1861_8203" result="effect3_dropShadow_1861_8203"/><feBlend in="SourceGraphic" in2="effect3_dropShadow_1861_8203" result="shape"/></filter></defs></svg>